
        <svg xmlns="http://www.w3.org/2000/svg" xmlns:xlink="http://www.w3.org/1999/xlink" version="1.1" width="3214.285714285714" 
        height="2225.3297677400046" viewBox="0 0 3214.285714285714 2225.3297677400046">
			
			<g transform="scale(10.714285714285714) translate(10, 10)">
				<defs id="SvgjsDefs3043"></defs><g id="SvgjsG3044" featureKey="symbolFeature-0" transform="matrix(4.050000000000001,0,0,4.050000000000001,92,0)" fill="#0074e4"><g xmlns="http://www.w3.org/2000/svg"><g><path d="M12,24C5.383,24,0,18.617,0,12S5.383,0,12,0s12,5.383,12,12S18.617,24,12,24z M12,1C5.935,1,1,5.935,1,12s4.935,11,11,11    s11-4.935,11-11S18.065,1,12,1z"></path></g><g><path d="M13.532,23.898c-0.113,0-0.228-0.038-0.321-0.117c-0.212-0.178-0.239-0.493-0.062-0.705    c0.635-0.757,1.704-2.166,1.872-2.722c0.123-0.407,0.152-1.336,0.017-1.664c-0.126-0.304-0.752-0.743-1.256-1.095    C12.906,16.981,12,16.346,12,15.5c0-0.449,0.404-0.71,0.729-0.92c0.078-0.05,0.197-0.127,0.266-0.183    c-0.111-1.038-1.864-2.317-3.282-3.352c-1.078-0.787-2.097-1.53-2.617-2.253C6.742,8.305,6.16,7.24,6.014,6.614    C5.92,6.217,5.991,5.707,6.066,5.167c0.062-0.443,0.165-1.184,0.028-1.374C6.092,3.824,5.84,3.798,5.688,3.783    C5.243,3.739,4.5,3.665,4.5,3c0-0.276,0.224-0.5,0.5-0.5c0.183,0,0.342,0.097,0.429,0.243c0.101,0.019,0.256,0.035,0.358,0.045    C6.22,2.832,6.666,2.876,6.905,3.207c0.372,0.517,0.26,1.32,0.151,2.098C7,5.71,6.936,6.17,6.986,6.385    C7.09,6.824,7.578,7.754,7.905,8.208c0.429,0.594,1.385,1.292,2.396,2.03C12.12,11.564,14,12.937,14,14.5    c0,0.449-0.404,0.71-0.729,0.92c-0.073,0.047-0.183,0.118-0.253,0.173c0.125,0.333,0.846,0.839,1.338,1.185    c0.703,0.493,1.368,0.958,1.605,1.531c0.255,0.615,0.181,1.794,0.017,2.336c-0.282,0.934-1.882,2.859-2.063,3.075    C13.816,23.837,13.675,23.898,13.532,23.898z"></path></g><g><path d="M21.501,19c-0.03,0-0.061-0.002-0.091-0.008c-0.271-0.05-0.452-0.31-0.402-0.582c0.264-1.439,0.361-3.236,0.087-3.617    c-0.151-0.209-0.902-0.349-1.399-0.44c-0.563-0.104-1.096-0.203-1.458-0.427c-0.208-0.128-0.384-0.343-0.568-0.571    c-0.107-0.132-0.287-0.353-0.366-0.396c-0.221-0.09-0.784-0.019-1.241,0.037c-0.661,0.083-1.283,0.16-1.753-0.034    c-0.9-0.374-3.889-2.163-3.271-3.653c0.265-0.636,1.03-0.469,1.591-0.348c0.202,0.044,0.542,0.121,0.649,0.095    c0.38-0.241,0.745-1.267,1.038-2.091c0.244-0.687,0.475-1.336,0.778-1.756c0.127-0.176,0.328-0.318,0.541-0.469    c0.08-0.056,0.191-0.135,0.277-0.204c-0.175-0.069-0.533-0.177-0.745-0.241c-0.371-0.111-0.722-0.217-0.961-0.389    c-0.174-0.125-0.316-0.321-0.468-0.529c-0.058-0.078-0.137-0.188-0.208-0.272c-0.04,0.057-0.08,0.12-0.111,0.167    C13.21,3.596,12.949,4,12.5,4c-0.691,0-1.322-0.973-1.462-1.308c-0.181-0.436-0.123-1.088-0.073-1.664    C10.982,0.825,11,0.64,11,0.5C11,0.224,11.224,0,11.5,0S12,0.224,12,0.5c0,0.163-0.018,0.379-0.039,0.615    c-0.032,0.368-0.086,0.985,0.001,1.194c0.08,0.193,0.313,0.491,0.479,0.629c0.048-0.067,0.102-0.149,0.14-0.209    C12.79,2.404,13.051,2,13.5,2c0.473,0,0.777,0.418,1.047,0.787c0.078,0.107,0.196,0.269,0.246,0.308    c0.102,0.073,0.413,0.167,0.662,0.242c0.672,0.202,1.433,0.43,1.538,1.083c0.086,0.527-0.395,0.865-0.781,1.138    c-0.106,0.075-0.269,0.189-0.309,0.238c-0.218,0.303-0.435,0.914-0.646,1.505c-0.381,1.072-0.775,2.181-1.495,2.625    c-0.364,0.226-0.842,0.123-1.347,0.013c-0.127-0.028-0.311-0.068-0.449-0.086c0.171,0.537,1.615,1.727,2.725,2.187    c0.225,0.093,0.79,0.021,1.247-0.034c0.66-0.083,1.284-0.16,1.753,0.034c0.295,0.123,0.527,0.409,0.753,0.685    c0.101,0.124,0.253,0.311,0.318,0.352c0.203,0.125,0.688,0.215,1.114,0.294c0.809,0.149,1.644,0.304,2.029,0.839    c0.658,0.913,0.231,3.585,0.086,4.382C21.947,18.832,21.737,19,21.501,19z"></path></g></g></g><g id="SvgjsG3045" featureKey="nameFeature-0" transform="matrix(0.9048369165540844,0,0,0.9048369165540844,-1.8096738331081688,106.1419604530299)" fill="#264e86"><path d="M8 30 c0 2.96 1.48 4.64 4.48 4.64 c0.84 0 1.6 -0.12 2.2 -0.4 c1.12 -0.44 1.88 -1.28 2.28 -2.44 c0.16 -0.56 0.24 -1.16 0.24 -1.8 s-0.08 -1.24 -0.24 -1.8 c-0.44 -1.24 -1.12 -1.92 -2.28 -2.48 c-0.6 -0.24 -1.36 -0.36 -2.2 -0.36 c-3 0 -4.48 1.68 -4.48 4.64 z M8 38 l0 10 l-6 0 l0 -18 c0 -6.4 4.52 -10.2 10.56 -10.2 c6.16 0 10.64 4.04 10.64 10.16 c0 5.68 -4.28 10.24 -9.96 10.24 c-1.16 0 -2.16 -0.2 -3 -0.6 c-0.88 -0.36 -1.64 -0.92 -2.24 -1.6 z M32.292 27.6 c0.6 0.2 1.28 0.36 2 0.44 c0.72 0.12 1.4 0.16 2.04 0.16 c0.8 0 2.84 -0.16 2.84 -1.32 c0 -1.24 -1.76 -1.28 -2.64 -1.28 c-1.76 0 -3.28 0.4 -4.24 2 z M43.611999999999995 33.76 l0 5.6 c-2.24 0.52 -4.48 0.88 -6.8 0.88 c-6.36 0 -11.08 -3.72 -11.08 -10.16 c0 -6.36 4.56 -10.28 10.6 -10.28 c4.12 0 8.88 1.96 8.88 6.64 c0 4.64 -5.04 6.36 -8.92 6.36 c-1.48 0 -2.96 -0.4 -4.32 -0.96 c0.8 2.24 3.2 2.6 5.28 2.6 c1.08 0 2.16 -0.04 3.24 -0.2 c1 -0.08 2.16 -0.2 3.12 -0.48 z M55.064 30 l0 10 l-6 0 l0 -9.96 c0 -6.64 4.88 -10.24 11.04 -10.24 c0.2 0 0.48 0 0.76 0.04 s0.6 0.12 0.88 0.16 l0 5.8 c-0.2 -0.04 -0.44 -0.08 -0.72 -0.12 s-0.52 -0.08 -0.72 -0.08 c-1 0 -1.8 0.12 -2.48 0.32 c-1.12 0.4 -2.12 1.16 -2.48 2.36 c-0.2 0.52 -0.28 1.12 -0.28 1.72 z M64.316 39.36 l0 -5.6 c2.64 0.8 5.96 0.96 8.68 0.96 c1.08 0 1.92 -0.04 2.52 -0.16 c0.56 -0.08 0.84 -0.28 0.84 -0.56 c0 -0.12 -0.04 -0.2 -0.12 -0.32 c-0.4 -0.4 -1.28 -0.6 -1.8 -0.72 s-1.2 -0.28 -2.04 -0.44 c-0.68 -0.12 -1.48 -0.28 -2.4 -0.48 c-3.12 -0.68 -5.52 -2.44 -5.52 -5.8 c0 -4.96 4.84 -6.44 8.92 -6.44 c2.56 0 5.12 0.36 7.64 0.88 l0 5.64 c-2.52 -0.76 -5.36 -0.96 -8 -0.96 c-1.04 0 -1.76 0.04 -2.2 0.16 s-0.68 0.32 -0.68 0.56 c0 0.36 0.36 0.6 1.04 0.72 c0.68 0.16 1.64 0.36 2.8 0.56 c1.04 0.2 2.04 0.4 3 0.64 c2.96 0.76 5.08 2.36 5.08 5.56 c0 5.36 -5.4 6.68 -9.72 6.68 c-2.72 0 -5.4 -0.36 -8.04 -0.88 z M95.248 34.64 c2.92 0 4.6 -1.72 4.6 -4.64 s-1.68 -4.64 -4.6 -4.64 s-4.6 1.72 -4.6 4.64 s1.68 4.64 4.6 4.64 z M95.248 40.2 c-6.16 0 -10.6 -4.08 -10.6 -10.2 c0 -6.32 4.6 -10.2 10.6 -10.2 c6.2 0 10.6 4.08 10.6 10.2 c0 6.28 -4.64 10.2 -10.6 10.2 z M129.98000000000002 30 l0 10 l-6 0 l0 -10 c0 -2.76 -1.28 -4.64 -4.2 -4.64 c-2.88 0 -4.2 1.92 -4.2 4.64 l0 10 l-6 0 l0 -10 c0 -6.16 4.24 -10.2 10.2 -10.2 c6.2 0 10.2 4.24 10.2 10.2 z M148.592 30 c-0.16 -2.92 -1.48 -4.64 -4.52 -4.64 c-0.84 0 -1.56 0.12 -2.16 0.36 c-1.84 0.84 -2.52 2.4 -2.52 4.32 c0 0.64 0.08 1.24 0.28 1.76 c0.6 2.08 2.4 2.84 4.4 2.84 c3.04 0 4.52 -1.64 4.52 -4.64 z M156.192 40 l-6 0 c-0.4 -1 -0.76 -2 -1 -3.04 c-1.36 2.24 -3.44 3.24 -6 3.24 c-5.72 0 -9.8 -4.8 -9.8 -10.28 c0 -6.32 4.72 -10.12 10.68 -10.12 c6.36 0 10.36 4.08 10.52 10.2 c0.04 0.52 0.04 1.12 0.04 1.84 c0 2.8 0.44 5.6 1.56 8.16 z M159.28400000000002 12 l6 0 l0 28 l-6 0 l0 -28 z M186.068 30 c0 2.96 1.48 4.64 4.48 4.64 c0.84 0 1.6 -0.12 2.2 -0.4 c1.12 -0.44 1.88 -1.28 2.28 -2.44 c0.16 -0.56 0.24 -1.16 0.24 -1.8 s-0.08 -1.24 -0.24 -1.8 c-0.44 -1.24 -1.12 -1.92 -2.28 -2.48 c-0.6 -0.24 -1.36 -0.36 -2.2 -0.36 c-3 0 -4.48 1.68 -4.48 4.64 z M180.068 12 l6 0 l0 10 c1.36 -1.56 3.2 -2.2 5.24 -2.2 c5.84 0 9.96 4.68 9.96 10.28 c0 6.32 -4.68 10.12 -10.64 10.12 c-6.2 0 -10.56 -4.08 -10.56 -10.2 l0 -18 z M219 30 c-0.16 -2.92 -1.48 -4.64 -4.52 -4.64 c-0.84 0 -1.56 0.12 -2.16 0.36 c-1.84 0.84 -2.52 2.4 -2.52 4.32 c0 0.64 0.08 1.24 0.28 1.76 c0.6 2.08 2.4 2.84 4.4 2.84 c3.04 0 4.52 -1.64 4.52 -4.64 z M226.60000000000002 40 l-6 0 c-0.4 -1 -0.76 -2 -1 -3.04 c-1.36 2.24 -3.44 3.24 -6 3.24 c-5.72 0 -9.8 -4.8 -9.8 -10.28 c0 -6.32 4.72 -10.12 10.68 -10.12 c6.36 0 10.36 4.08 10.52 10.2 c0.04 0.52 0.04 1.12 0.04 1.84 c0 2.8 0.44 5.6 1.56 8.16 z M250.292 30 l0 10 l-6 0 l0 -10 c0 -2.76 -1.28 -4.64 -4.2 -4.64 c-2.88 0 -4.2 1.92 -4.2 4.64 l0 10 l-6 0 l0 -10 c0 -6.16 4.24 -10.2 10.2 -10.2 c6.2 0 10.2 4.24 10.2 10.2 z M266.464 20 l6 0 l0 2 c0 3.04 -1.04 5.96 -3.28 8.04 l5.28 9.96 l-7.4 0 l-6.2 -11.84 l0 11.84 l-6 0 l0 -28 l6 0 l0 15.08 l0.92 0 c3.24 0 4.68 -2.16 4.68 -5.12 l0 -1.96 z M281.996 27.6 c0.6 0.2 1.28 0.36 2 0.44 c0.72 0.12 1.4 0.16 2.04 0.16 c0.8 0 2.84 -0.16 2.84 -1.32 c0 -1.24 -1.76 -1.28 -2.64 -1.28 c-1.76 0 -3.28 0.4 -4.24 2 z M293.31600000000003 33.76 l0 5.6 c-2.24 0.52 -4.48 0.88 -6.8 0.88 c-6.36 0 -11.08 -3.72 -11.08 -10.16 c0 -6.36 4.56 -10.28 10.6 -10.28 c4.12 0 8.88 1.96 8.88 6.64 c0 4.64 -5.04 6.36 -8.92 6.36 c-1.48 0 -2.96 -0.4 -4.32 -0.96 c0.8 2.24 3.2 2.6 5.28 2.6 c1.08 0 2.16 -0.04 3.24 -0.2 c1 -0.08 2.16 -0.2 3.12 -0.48 z M304.76800000000003 30 l0 10 l-6 0 l0 -9.96 c0 -6.64 4.88 -10.24 11.04 -10.24 c0.2 0 0.48 0 0.76 0.04 s0.6 0.12 0.88 0.16 l0 5.8 c-0.2 -0.04 -0.44 -0.08 -0.72 -0.12 s-0.52 -0.08 -0.72 -0.08 c-1 0 -1.8 0.12 -2.48 0.32 c-1.12 0.4 -2.12 1.16 -2.48 2.36 c-0.2 0.52 -0.28 1.12 -0.28 1.72 z"></path></g><g id="SvgjsG3046" featureKey="sloganFeature-0" transform="matrix(1.0791123989312366,0,0,1.0791123989312366,58.92088785834921,165.89937267823694)" fill="#0074e4"><path d="M1 20 l0 -16 l3.24 0 c2.06 0 2.6 1.26 2.76 4.28 l0 0.64 c-0.16 3.02 -0.7 4.28 -2.76 4.28 l-1.24 0 l0 6.8 l-2 0 z M3 11.6 l1.24 0 c0.6 0 0.82 -0.5 0.9 -2.68 l0 -0.64 c-0.08 -2.18 -0.3 -2.68 -0.9 -2.68 l-1.24 0 l0 6 z M10.15 20 l0 -16 l3.24 0 c2.06 0 2.76 1.26 2.76 3.68 c0 2.18 -0.26 3.42 -0.88 4.02 l0 0.12 c0.52 0.18 0.68 1.12 0.88 3.46 l0.4 4.72 l-2 0 l-0.26 -4.72 c-0.14 -2.38 -0.5 -2.88 -1.1 -2.88 l-1.04 0 l0 7.6 l-2 0 z M12.15 10.8 l1.24 0 c0.7 0 0.9 -0.7 0.9 -3.12 c0 -1.58 -0.3 -2.08 -0.9 -2.08 l-1.24 0 l0 5.2 z M19.9 20 l0 -16 l4.6 0 l0 1.6 l-2.6 0 l0 5.2 l2.2 0 l0 1.6 l-2.2 0 l0 5.6 l2.6 0 l0 2 l-4.6 0 z M27.25 15.120000000000001 l2.02 0 c0.04 2.58 0.24 3.08 0.96 3.08 c0.98 0 0.98 -0.82 0.98 -3 c0 -3.2 -3.96 -2.34 -3.96 -6.6 c0 -2.5 0 -4.8 3 -4.8 c2.22 0 2.82 1.26 2.96 4.28 l-2 0 c-0.08 -2.18 -0.32 -2.68 -0.96 -2.68 c-0.98 0 -0.98 1.08 -0.98 3.2 c0 3.1 3.98 2 3.98 6.6 c0 2.8 0 5 -3.02 5 c-2.32 0 -2.86 -1.38 -2.98 -5.08 z M36.599999999999994 20 l0 -16 l4.6 0 l0 1.6 l-2.6 0 l0 5.2 l2.2 0 l0 1.6 l-2.2 0 l0 5.6 l2.6 0 l0 2 l-4.6 0 z M44.349999999999994 20 l0 -16 l3.24 0 c2.06 0 2.76 1.26 2.76 3.68 c0 2.18 -0.26 3.42 -0.88 4.02 l0 0.12 c0.52 0.18 0.68 1.12 0.88 3.46 l0.4 4.72 l-2 0 l-0.26 -4.72 c-0.14 -2.38 -0.5 -2.88 -1.1 -2.88 l-1.04 0 l0 7.6 l-2 0 z M46.349999999999994 10.8 l1.24 0 c0.7 0 0.9 -0.7 0.9 -3.12 c0 -1.58 -0.3 -2.08 -0.9 -2.08 l-1.24 0 l0 5.2 z M53.49999999999999 4 l2.1 0 l1.2 11.8 l0.2 0 l1.2 -11.8 l2.1 0 l-2.2 16 l-2.4 0 z M63.449999999999996 20 l0 -16 l4.6 0 l0 1.6 l-2.6 0 l0 5.2 l2.2 0 l0 1.6 l-2.2 0 l0 5.6 l2.6 0 l0 2 l-4.6 0 z M71.19999999999999 18.98 c0 -0.76 0.26 -1.02 1.02 -1.02 s1.02 0.26 1.02 1.02 s-0.26 1.02 -1.02 1.02 s-1.02 -0.26 -1.02 -1.02 z M83.14 20 l0 -16 l3.24 0 c2.06 0 2.6 1.26 2.76 4.28 l0 0.64 c-0.16 3.02 -0.7 4.28 -2.76 4.28 l-1.24 0 l0 6.8 l-2 0 z M85.14 11.6 l1.24 0 c0.6 0 0.82 -0.5 0.9 -2.68 l0 -0.64 c-0.08 -2.18 -0.3 -2.68 -0.9 -2.68 l-1.24 0 l0 6 z M92.29 20 l0 -16 l3.24 0 c2.06 0 2.76 1.26 2.76 3.68 c0 2.18 -0.26 3.42 -0.88 4.02 l0 0.12 c0.52 0.18 0.68 1.12 0.88 3.46 l0.4 4.72 l-2 0 l-0.26 -4.72 c-0.14 -2.38 -0.5 -2.88 -1.1 -2.88 l-1.04 0 l0 7.6 l-2 0 z M94.29 10.8 l1.24 0 c0.7 0 0.9 -0.7 0.9 -3.12 c0 -1.58 -0.3 -2.08 -0.9 -2.08 l-1.24 0 l0 5.2 z M101.84 11.58 c0 -5.58 0.12 -7.78 3.12 -7.78 s3.12 2.2 3.12 7.78 c0 6.4 -0.12 8.62 -3.12 8.62 s-3.12 -2.22 -3.12 -8.62 z M103.84 11.58 c0 5.78 0 6.62 1.12 6.62 s1.12 -0.84 1.12 -6.62 c0 -5.2 0 -6.18 -1.12 -6.18 s-1.12 0.98 -1.12 6.18 z M111.23 15.120000000000001 l2.02 0 c0.04 2.58 0.24 3.08 0.96 3.08 c0.98 0 0.98 -0.82 0.98 -3 c0 -3.2 -3.96 -2.34 -3.96 -6.6 c0 -2.5 0 -4.8 3 -4.8 c2.22 0 2.82 1.26 2.96 4.28 l-2 0 c-0.08 -2.18 -0.32 -2.68 -0.96 -2.68 c-0.98 0 -0.98 1.08 -0.98 3.2 c0 3.1 3.98 2 3.98 6.6 c0 2.8 0 5 -3.02 5 c-2.32 0 -2.86 -1.38 -2.98 -5.08 z M120.58000000000001 20 l0 -16 l3.24 0 c2.06 0 2.6 1.26 2.76 4.28 l0 0.64 c-0.16 3.02 -0.7 4.28 -2.76 4.28 l-1.24 0 l0 6.8 l-2 0 z M122.58000000000001 11.6 l1.24 0 c0.6 0 0.82 -0.5 0.9 -2.68 l0 -0.64 c-0.08 -2.18 -0.3 -2.68 -0.9 -2.68 l-1.24 0 l0 6 z M129.73000000000002 20 l0 -16 l4.6 0 l0 1.6 l-2.6 0 l0 5.2 l2.2 0 l0 1.6 l-2.2 0 l0 5.6 l2.6 0 l0 2 l-4.6 0 z M137.48000000000002 20 l0 -16 l3.24 0 c2.06 0 2.76 1.26 2.76 3.68 c0 2.18 -0.26 3.42 -0.88 4.02 l0 0.12 c0.52 0.18 0.68 1.12 0.88 3.46 l0.4 4.72 l-2 0 l-0.26 -4.72 c-0.14 -2.38 -0.5 -2.88 -1.1 -2.88 l-1.04 0 l0 7.6 l-2 0 z M139.48000000000002 10.8 l1.24 0 c0.7 0 0.9 -0.7 0.9 -3.12 c0 -1.58 -0.3 -2.08 -0.9 -2.08 l-1.24 0 l0 5.2 z M147.23000000000002 18.98 c0 -0.76 0.26 -1.02 1.02 -1.02 s1.02 0.26 1.02 1.02 s-0.26 1.02 -1.02 1.02 s-1.02 -0.26 -1.02 -1.02 z"></path></g>
			</g>
		</svg>
	